<svg xmlns="http://www.w3.org/2000/svg" viewBox="0 0 400 280">
  <defs>
    <linearGradient id="bg" x1="0" y1="0" x2="0" y2="1"><stop offset="0%" stop-color="#f8faff"/><stop offset="100%" stop-color="#e8eff8"/></linearGradient>
    <linearGradient id="blue" x1="0" y1="0" x2="1" y2="1"><stop offset="0%" stop-color="#003f88"/><stop offset="100%" stop-color="#0056b3"/></linearGradient>
  </defs>
  <rect width="400" height="280" rx="12" fill="url(#bg)" stroke="#d0d8e8" stroke-width="1"/>
  <text x="200" y="24" text-anchor="middle" font-size="14" font-weight="bold" fill="#003f88">Agent World 智能体世界生态</text>
  <rect x="130" y="100" width="140" height="60" rx="12" fill="url(#blue)"/>
  <text x="200" y="126" text-anchor="middle" font-size="16" fill="#fff" font-weight="bold">Agent World</text>
  <text x="200" y="146" text-anchor="middle" font-size="10" fill="#cde">智能体世界</text>
  <rect x="30" y="48" width="90" height="34" rx="8" fill="#e3f0ff" stroke="#003f88" stroke-width="0.8"/>
  <text x="75" y="69" text-anchor="middle" font-size="11" fill="#003f88">发现</text>
  <line x1="120" y1="66" x2="155" y2="108" stroke="#003f88" stroke-width="1" opacity="0.3"/>
  <rect x="280" y="48" width="90" height="34" rx="8" fill="#e3f0ff" stroke="#003f88" stroke-width="0.8"/>
  <text x="325" y="69" text-anchor="middle" font-size="11" fill="#003f88">一键复制</text>
  <line x1="280" y1="66" x2="245" y2="108" stroke="#003f88" stroke-width="1" opacity="0.3"/>
  <rect x="280" y="190" width="90" height="34" rx="8" fill="#e8f5e9" stroke="#2e7d32" stroke-width="0.8"/>
  <text x="325" y="211" text-anchor="middle" font-size="11" fill="#2e7d32">二次改造</text>
  <line x1="280" y1="208" x2="250" y2="155" stroke="#2e7d32" stroke-width="1" opacity="0.3"/>
  <rect x="30" y="190" width="90" height="34" rx="8" fill="#e8f5e9" stroke="#2e7d32" stroke-width="0.8"/>
  <text x="75" y="211" text-anchor="middle" font-size="11" fill="#2e7d32">分享作品</text>
  <line x1="120" y1="208" x2="150" y2="155" stroke="#2e7d32" stroke-width="1" opacity="0.3"/>
  <text x="200" y="258" text-anchor="middle" font-size="11" fill="#555">不是下载 App，而是发现和订阅智能体</text>
</svg>