<svg xmlns="http://www.w3.org/2000/svg" viewBox="0 0 500 420">
  <defs>
    <linearGradient id="g1" x1="0%" y1="0%" x2="100%" y2="0%">
      <stop offset="0%" style="stop-color:#0288d1"/>
      <stop offset="100%" style="stop-color:#4fc3f7"/>
    </linearGradient>
    <linearGradient id="g6" x1="0%" y1="0%" x2="100%" y2="0%">
      <stop offset="0%" style="stop-color:#1b5e20"/>
      <stop offset="100%" style="stop-color:#a5d6a7"/>
    </linearGradient>
  </defs>
  <rect x="0" y="10" width="480" height="55" rx="6" fill="url(#g6)" opacity="0.9"/>
  <text x="20" y="40" fill="white" font-size="15" font-weight="bold">第六层</text>
  <text x="80" y="40" fill="white" font-size="14">高阶生活助理 — 全场景沟通·规划·执行</text>
  <rect x="0" y="75" width="480" height="55" rx="6" fill="#b71c1c" opacity="0.85"/>
  <text x="20" y="105" fill="white" font-size="15" font-weight="bold">第五层</text>
  <text x="80" y="105" fill="white" font-size="14">系统建设 — 完整方案 · 架构设计 · 多方集成</text>
  <rect x="0" y="140" width="480" height="55" rx="6" fill="#6a1b9a" opacity="0.85"/>
  <text x="20" y="170" fill="white" font-size="15" font-weight="bold">第四层</text>
  <text x="80" y="170" fill="white" font-size="14">项目落地 — 需求理解 · 定制开发 · MVP 交付</text>
  <rect x="0" y="205" width="480" height="55" rx="6" fill="#e65100" opacity="0.85"/>
  <text x="20" y="235" fill="white" font-size="15" font-weight="bold">第三层</text>
  <text x="80" y="235" fill="white" font-size="14">自主 Agent — Coze · 自主规划·交互·收集</text>
  <rect x="0" y="270" width="480" height="55" rx="6" fill="#00695c" opacity="0.85"/>
  <text x="20" y="300" fill="white" font-size="15" font-weight="bold">第二层</text>
  <text x="80" y="300" fill="white" font-size="14">自动化工作流 — Coze · Dify · 流程编排</text>
  <rect x="0" y="335" width="480" height="55" rx="6" fill="url(#g1)" opacity="0.9"/>
  <text x="20" y="365" fill="white" font-size="15" font-weight="bold">第一层</text>
  <text x="80" y="365" fill="white" font-size="14">对话式 AI — DeepSeek · 豆包 · 千问 · Claude Code</text>
  <text x="5" y="410" fill="#888" font-size="11">▲ 自主程度递增</text>
</svg>