<svg xmlns="http://www.w3.org/2000/svg" viewBox="0 0 400 300"><defs><linearGradient id="bg" x1="0" y1="0" x2="0" y2="1"><stop offset="0%" stop-color="#f8faff"/><stop offset="100%" stop-color="#e8eff8"/></linearGradient><linearGradient id="blue" x1="0" y1="0" x2="1" y2="1"><stop offset="0%" stop-color="#003f88"/><stop offset="100%" stop-color="#0056b3"/></linearGradient></defs><rect width="400" height="300" rx="12" fill="url(#bg)" stroke="#d0d8e8" stroke-width="1"/><text x="200" y="24" text-anchor="middle" font-size="14" font-weight="bold" fill="#003f88">审核与报表处理流程</text><rect x="20" y="70" width="70" height="38" rx="10" fill="#e0e0e0"/><text x="55" y="92" text-anchor="middle" font-size="10" fill="#555">原始数据</text><polygon points="92,90 100,90" fill="#aaa"/><rect x="102" y="70" width="70" height="38" rx="10" fill="#e3f0ff"/><text x="137" y="86" text-anchor="middle" font-size="10" fill="#003f88">规则校验</text><text x="137" y="100" text-anchor="middle" font-size="8" fill="#888">自动匹配</text><polygon points="174,90 182,90" fill="#aaa"/><rect x="184" y="70" width="70" height="38" rx="10" fill="#fff3e0"/><text x="219" y="86" text-anchor="middle" font-size="10" fill="#e65100">异常标记</text><text x="219" y="100" text-anchor="middle" font-size="8" fill="#888">问题分类</text><polygon points="256,90 264,90" fill="#aaa"/><rect x="266" y="70" width="70" height="38" rx="10" fill="#f3e5f5"/><text x="301" y="86" text-anchor="middle" font-size="10" fill="#7b1fa2">人工复核</text><text x="301" y="100" text-anchor="middle" font-size="8" fill="#888">确认/驳回</text><polygon points="338,90 346,90" fill="#aaa"/><rect x="320" y="130" width="70" height="38" rx="10" fill="url(#blue)" opacity="0.9"/><text x="355" y="152" text-anchor="middle" font-size="10" fill="#fff" font-weight="bold">最终报表</text><path d="M 295 110 Q 295 160 220 160 Q 175 160 175 130" fill="none" stroke="#e65100" stroke-width="1.2" stroke-dasharray="5,3"/><text x="230" y="172" text-anchor="middle" font-size="8" fill="#e65100">驳回重审</text><text x="200" y="202" text-anchor="middle" font-size="11" font-weight="bold" fill="#003f88">报表输出维度</text><rect x="30" y="216" width="100" height="28" rx="6" fill="#e3f0ff"/><text x="80" y="234" text-anchor="middle" font-size="9" fill="#003f88">月度报销趋势</text><rect x="150" y="216" width="100" height="28" rx="6" fill="#e3f0ff"/><text x="200" y="234" text-anchor="middle" font-size="9" fill="#003f88">部门品类占比</text><rect x="270" y="216" width="100" height="28" rx="6" fill="#e3f0ff"/><text x="320" y="234" text-anchor="middle" font-size="9" fill="#003f88">异常分类统计</text><text x="200" y="278" text-anchor="middle" font-size="10" fill="#555">从人工核对到一键出表</text></svg>