<svg xmlns="http://www.w3.org/2000/svg" viewBox="0 0 400 300"><defs><linearGradient id="bg" x1="0" y1="0" x2="0" y2="1"><stop offset="0%" stop-color="#f8faff"/><stop offset="100%" stop-color="#e8eff8"/></linearGradient><linearGradient id="blue" x1="0" y1="0" x2="1" y2="1"><stop offset="0%" stop-color="#003f88"/><stop offset="100%" stop-color="#0056b3"/></linearGradient></defs><rect width="400" height="300" rx="12" fill="url(#bg)" stroke="#d0d8e8" stroke-width="1"/><text x="200" y="24" text-anchor="middle" font-size="14" font-weight="bold" fill="#003f88">小班课全链路实战</text><circle cx="200" cy="155" r="26" fill="url(#blue)"/><text x="200" y="150" text-anchor="middle" font-size="9" fill="#fff" font-weight="bold">实战</text><text x="200" y="164" text-anchor="middle" font-size="7" fill="#cde">驱动</text><rect x="55" y="52" width="110" height="38" rx="8" fill="url(#blue)" opacity="0.9"/><text x="110" y="68" text-anchor="middle" font-size="11" fill="#fff" font-weight="bold">需求调研</text><text x="110" y="83" text-anchor="middle" font-size="8" fill="#d0dfff">真实场景采集</text><rect x="240" y="52" width="110" height="38" rx="8" fill="#e3f0ff" stroke="#003f88" stroke-width="0.8"/><text x="295" y="68" text-anchor="middle" font-size="11" fill="#003f88" font-weight="bold">STAR 梳理</text><text x="295" y="83" text-anchor="middle" font-size="8" fill="#668">结构化需求</text><rect x="320" y="140" width="72" height="38" rx="8" fill="#e3f0ff" stroke="#003f88" stroke-width="0.8"/><text x="356" y="156" text-anchor="middle" font-size="10" fill="#003f88" font-weight="bold">方案设计</text><text x="356" y="171" text-anchor="middle" font-size="7" fill="#668">技术选型</text><rect x="240" y="228" width="110" height="38" rx="8" fill="#e3f0ff" stroke="#003f88" stroke-width="0.8"/><text x="295" y="244" text-anchor="middle" font-size="11" fill="#003f88" font-weight="bold">Agent 搭建</text><text x="295" y="258" text-anchor="middle" font-size="8" fill="#668">Coze 实战</text><rect x="55" y="228" width="110" height="38" rx="8" fill="#43a047" opacity="0.85"/><text x="110" y="244" text-anchor="middle" font-size="11" fill="#fff" font-weight="bold">交付验收</text><text x="110" y="258" text-anchor="middle" font-size="8" fill="#e0ffe0">跑起来的系统</text><text x="200" y="285" text-anchor="middle" font-size="11" fill="#555">不做观众，做 Agent 时代的创建者</text></svg>