<svg xmlns="http://www.w3.org/2000/svg" viewBox="0 0 480 300">
  <rect x="10" y="10" width="460" height="280" rx="10" fill="#f5f5f5" stroke="#ddd"/>
  <text x="25" y="38" fill="#333" font-size="14" font-weight="bold">异构数据源 → 统一模板</text>
  <rect x="25" y="55" width="120" height="38" rx="6" fill="#0288d1"/>
  <text x="35" y="78" fill="white" font-size="11">截图.jpg</text>
  <rect x="25" y="100" width="120" height="38" rx="6" fill="#00695c"/>
  <text x="35" y="124" fill="white" font-size="11">电子发票.pdf</text>
  <rect x="25" y="145" width="120" height="38" rx="6" fill="#e65100"/>
  <text x="35" y="169" fill="white" font-size="11">拍照.jpg</text>
  <rect x="25" y="190" width="120" height="38" rx="6" fill="#6a1b9a"/>
  <text x="35" y="214" fill="white" font-size="11">收据.jpg</text>
  <line x1="145" y1="74" x2="185" y2="110" stroke="#0288d1" stroke-width="2" stroke-dasharray="5,3"/>
  <line x1="145" y1="119" x2="185" y2="130" stroke="#0288d1" stroke-width="2" stroke-dasharray="5,3"/>
  <line x1="145" y1="164" x2="185" y2="150" stroke="#0288d1" stroke-width="2" stroke-dasharray="5,3"/>
  <line x1="145" y1="209" x2="185" y2="170" stroke="#0288d1" stroke-width="2" stroke-dasharray="5,3"/>
  <rect x="190" y="90" width="120" height="80" rx="8" fill="#fff" stroke="#333" stroke-width="2"/>
  <text x="200" y="115" fill="#333" font-size="12" font-weight="bold">Agent 处理中心</text>
  <text x="200" y="133" fill="#555" font-size="11">OCR · 字段提取</text>
  <text x="200" y="150" fill="#555" font-size="11">格式转换</text>
  <line x1="310" y1="130" x2="345" y2="130" stroke="#0288d1" stroke-width="2"/>
  <polygon points="340,125 350,130 340,135" fill="#0288d1"/>
  <rect x="350" y="105" width="110" height="50" rx="8" fill="#1b5e20"/>
  <text x="365" y="128" fill="white" font-size="12" font-weight="bold">统一数据模板</text>
  <text x="365" y="146" fill="#ddd" font-size="11">Excel 输出</text>
  <rect x="190" y="195" width="200" height="35" rx="6" fill="#ff8f00"/>
  <text x="205" y="217" fill="white" font-size="11">人工校验 + 异常标记</text>
  <line x1="250" y1="170" x2="250" y2="193" stroke="#999" stroke-width="1.5" stroke-dasharray="4,3"/>
  <polygon points="245,188 250,198 255,188" fill="#999"/>
</svg>