<svg xmlns="http://www.w3.org/2000/svg" viewBox="0 0 400 300"><defs><linearGradient id="bg" x1="0" y1="0" x2="0" y2="1"><stop offset="0%" stop-color="#f8faff"/><stop offset="100%" stop-color="#e8eff8"/></linearGradient><linearGradient id="blue" x1="0" y1="0" x2="1" y2="1"><stop offset="0%" stop-color="#003f88"/><stop offset="100%" stop-color="#0056b3"/></linearGradient></defs><rect width="400" height="300" rx="12" fill="url(#bg)" stroke="#d0d8e8" stroke-width="1"/><text x="200" y="24" text-anchor="middle" font-size="14" font-weight="bold" fill="#003f88">异构发票来源 → 统一处理</text><rect x="30" y="52" width="150" height="42" rx="8" fill="#fff3e0" stroke="#e65100" stroke-width="0.8"/><text x="105" y="69" text-anchor="middle" font-size="11" fill="#e65100" font-weight="bold">电商截图</text><text x="105" y="86" text-anchor="middle" font-size="9" fill="#999">京东 / 淘宝 / 拼多多</text><rect x="220" y="52" width="150" height="42" rx="8" fill="#e8f0ff" stroke="#003f88" stroke-width="0.8"/><text x="295" y="69" text-anchor="middle" font-size="11" fill="#003f88" font-weight="bold">电子发票</text><text x="295" y="86" text-anchor="middle" font-size="9" fill="#999">PDF / OFD 格式</text><rect x="30" y="114" width="150" height="42" rx="8" fill="#f3e5f5" stroke="#7b1fa2" stroke-width="0.8"/><text x="105" y="131" text-anchor="middle" font-size="11" fill="#7b1fa2" font-weight="bold">纸质拍照</text><text x="105" y="148" text-anchor="middle" font-size="9" fill="#999">手机拍摄 / 扫描件</text><rect x="220" y="114" width="150" height="42" rx="8" fill="#e8f5e9" stroke="#2e7d32" stroke-width="0.8"/><text x="295" y="131" text-anchor="middle" font-size="11" fill="#2e7d32" font-weight="bold">零星小票</text><text x="295" y="148" text-anchor="middle" font-size="9" fill="#999">收据 / 对账单</text><rect x="140" y="180" width="120" height="48" rx="12" fill="url(#blue)"/><text x="200" y="200" text-anchor="middle" font-size="13" fill="#fff" font-weight="bold">AI Agent</text><text x="200" y="218" text-anchor="middle" font-size="9" fill="#cde">统一清洗与录入</text><polygon points="192,228 200,240 208,228" fill="#003f88"/><rect x="120" y="244" width="160" height="36" rx="8" fill="#e8f5e9" stroke="#2e7d32" stroke-width="1.5"/><text x="200" y="260" text-anchor="middle" font-size="12" fill="#2e7d32" font-weight="bold">标准化报表模板</text><text x="200" y="274" text-anchor="middle" font-size="9" fill="#558">统一格式 · 自动归档</text></svg>