<svg xmlns="http://www.w3.org/2000/svg" viewBox="0 0 400 300">
  <defs>
    <linearGradient id="bg" x1="0" y1="0" x2="0" y2="1"><stop offset="0%" stop-color="#f8faff"/><stop offset="100%" stop-color="#e8eff8"/></linearGradient>
    <radialGradient id="center" cx="0.5" cy="0.5" r="0.5"><stop offset="0%" stop-color="#003f88"/><stop offset="100%" stop-color="#0056b3"/></radialGradient>
  </defs>
  <rect width="400" height="300" rx="12" fill="url(#bg)" stroke="#d0d8e8" stroke-width="1"/>
  <text x="200" y="24" text-anchor="middle" font-size="14" font-weight="bold" fill="#003f88">全场景 AI 生活助理</text>
  <!-- Center -->
  <circle cx="200" cy="155" r="36" fill="url(#center)"/>
  <text x="200" y="150" text-anchor="middle" font-size="11" fill="#fff" font-weight="bold">AI</text>
  <text x="200" y="165" text-anchor="middle" font-size="8" fill="#cde">生活助理</text>
  <!-- Surrounding nodes -->
  <rect x="60" y="55" width="90" height="28" rx="14" fill="#e3f0ff" stroke="#003f88" stroke-width="0.8"/>
  <text x="105" y="72" text-anchor="middle" font-size="10" fill="#003f88">日程管理</text>
  <rect x="250" y="55" width="90" height="28" rx="14" fill="#e3f0ff" stroke="#003f88" stroke-width="0.8"/>
  <text x="295" y="72" text-anchor="middle" font-size="10" fill="#003f88">信息检索</text>
  <rect x="310" y="140" width="80" height="28" rx="14" fill="#e3f0ff" stroke="#003f88" stroke-width="0.8"/>
  <text x="350" y="158" text-anchor="middle" font-size="10" fill="#003f88">健康建议</text>
  <rect x="250" y="222" width="90" height="28" rx="14" fill="#e3f0ff" stroke="#003f88" stroke-width="0.8"/>
  <text x="295" y="240" text-anchor="middle" font-size="10" fill="#003f88">学习辅导</text>
  <rect x="60" y="222" width="90" height="28" rx="14" fill="#e3f0ff" stroke="#003f88" stroke-width="0.8"/>
  <text x="105" y="240" text-anchor="middle" font-size="10" fill="#003f88">智能推荐</text>
  <rect x="10" y="140" width="80" height="28" rx="14" fill="#e3f0ff" stroke="#003f88" stroke-width="0.8"/>
  <text x="50" y="158" text-anchor="middle" font-size="10" fill="#003f88">情感陪伴</text>
  <!-- Lines -->
  <line x1="145" y1="72" x2="165" y2="122" stroke="#003f88" stroke-width="0.8" opacity="0.3"/>
  <line x1="255" y1="72" x2="235" y2="122" stroke="#003f88" stroke-width="0.8" opacity="0.3"/>
  <line x1="315" y1="150" x2="236" y2="152" stroke="#003f88" stroke-width="0.8" opacity="0.3"/>
  <line x1="255" y1="235" x2="235" y2="188" stroke="#003f88" stroke-width="0.8" opacity="0.3"/>
  <line x1="145" y1="235" x2="165" y2="188" stroke="#003f88" stroke-width="0.8" opacity="0.3"/>
  <line x1="85" y1="150" x2="164" y2="152" stroke="#003f88" stroke-width="0.8" opacity="0.3"/>
  <!-- Bottom -->
  <text x="200" y="278" text-anchor="middle" font-size="10" fill="#666">跨设备 · 全天候 · 主动感知 · 持续学习</text>
</svg>