<svg xmlns="http://www.w3.org/2000/svg" viewBox="0 0 400 300"><defs><linearGradient id="bg" x1="0" y1="0" x2="0" y2="1"><stop offset="0%" stop-color="#f8faff"/><stop offset="100%" stop-color="#e8eff8"/></linearGradient><linearGradient id="blue" x1="0" y1="0" x2="1" y2="1"><stop offset="0%" stop-color="#003f88"/><stop offset="100%" stop-color="#0056b3"/></linearGradient><linearGradient id="green" x1="0" y1="0" x2="1" y2="1"><stop offset="0%" stop-color="#2e7d32"/><stop offset="100%" stop-color="#43a047"/></linearGradient></defs><rect width="400" height="300" rx="12" fill="url(#bg)" stroke="#d0d8e8" stroke-width="1"/><text x="200" y="24" text-anchor="middle" font-size="14" font-weight="bold" fill="#003f88">传统开发 vs Agent 辅助</text><rect x="30" y="48" width="160" height="28" rx="6" fill="#e0e0e0"/><text x="110" y="66" text-anchor="middle" font-size="11" fill="#555" font-weight="bold">传统开发流程</text><rect x="38" y="86" width="144" height="22" rx="5" fill="#f5f5f5" stroke="#ddd" stroke-width="0.6"/><text x="110" y="101" text-anchor="middle" font-size="9" fill="#888">需求沟通</text><rect x="38" y="114" width="144" height="22" rx="5" fill="#f5f5f5" stroke="#ddd" stroke-width="0.6"/><text x="110" y="129" text-anchor="middle" font-size="9" fill="#888">写文档</text><rect x="38" y="142" width="144" height="22" rx="5" fill="#f5f5f5" stroke="#ddd" stroke-width="0.6"/><text x="110" y="157" text-anchor="middle" font-size="9" fill="#888">排期</text><rect x="38" y="170" width="144" height="22" rx="5" fill="#f5f5f5" stroke="#ddd" stroke-width="0.6"/><text x="110" y="185" text-anchor="middle" font-size="9" fill="#888">开发（2周）</text><rect x="38" y="198" width="144" height="22" rx="5" fill="#f5f5f5" stroke="#ddd" stroke-width="0.6"/><text x="110" y="213" text-anchor="middle" font-size="9" fill="#888">测试 → 上线</text><rect x="60" y="234" width="100" height="24" rx="8" fill="#e0e0e0"/><text x="110" y="250" text-anchor="middle" font-size="10" fill="#999" font-weight="bold">约 2 周</text><rect x="210" y="48" width="160" height="28" rx="6" fill="url(#green)" opacity="0.85"/><text x="290" y="66" text-anchor="middle" font-size="11" fill="#fff" font-weight="bold">Agent 辅助流程</text><rect x="218" y="86" width="144" height="22" rx="5" fill="#e8f5e9" stroke="#43a047" stroke-width="0.6"/><text x="290" y="101" text-anchor="middle" font-size="9" fill="#2e7d32">需求沟通</text><rect x="218" y="114" width="144" height="22" rx="5" fill="#e8f5e9" stroke="#43a047" stroke-width="0.6"/><text x="290" y="129" text-anchor="middle" font-size="9" fill="#2e7d32">Agent 自主规划</text><rect x="218" y="142" width="144" height="32" rx="5" fill="#c8e6c9" stroke="#43a047" stroke-width="1"/><text x="290" y="156" text-anchor="middle" font-size="9" fill="#2e7d32">快速搭建 MVP</text><text x="290" y="170" text-anchor="middle" font-size="8" fill="#43a047">（1天）</text><rect x="218" y="180" width="144" height="22" rx="5" fill="#e8f5e9" stroke="#43a047" stroke-width="0.6"/><text x="290" y="195" text-anchor="middle" font-size="9" fill="#2e7d32">用户试用 → 迭代</text><rect x="240" y="234" width="100" height="24" rx="8" fill="url(#green)"/><text x="290" y="250" text-anchor="middle" font-size="10" fill="#fff" font-weight="bold">约 1 天</text><text x="200" y="282" text-anchor="middle" font-size="11" fill="#003f88" font-weight="bold">效率提升 10 倍以上</text></svg>