<svg xmlns="http://www.w3.org/2000/svg" viewBox="0 0 400 320">
  <defs>
    <linearGradient id="bg" x1="0" y1="0" x2="0" y2="1"><stop offset="0%" stop-color="#f8faff"/><stop offset="100%" stop-color="#e8eff8"/></linearGradient>
    <radialGradient id="center" cx="0.5" cy="0.5" r="0.5"><stop offset="0%" stop-color="#003f88"/><stop offset="100%" stop-color="#0056b3"/></radialGradient>
  </defs>
  <rect width="400" height="320" rx="12" fill="url(#bg)" stroke="#d0d8e8" stroke-width="1"/>
  <text x="200" y="24" text-anchor="middle" font-size="14" font-weight="bold" fill="#003f88">插件生态矩阵</text>
  <circle cx="200" cy="165" r="30" fill="url(#center)"/>
  <text x="200" y="161" text-anchor="middle" font-size="9" fill="#fff" font-weight="bold">Agent</text>
  <text x="200" y="174" text-anchor="middle" font-size="7" fill="#cde">插件中枢</text>
  <rect x="55" y="52" width="80" height="30" rx="6" fill="#e8f0ff" stroke="#003f88" stroke-width="0.6"/>
  <text x="95" y="64" text-anchor="middle" font-size="10" fill="#003f88">搜索</text>
  <text x="95" y="76" text-anchor="middle" font-size="7" fill="#888">必应·网页</text>
  <rect x="265" y="52" width="80" height="30" rx="6" fill="#e8f0ff" stroke="#003f88" stroke-width="0.6"/>
  <text x="305" y="64" text-anchor="middle" font-size="10" fill="#003f88">图像</text>
  <text x="305" y="76" text-anchor="middle" font-size="7" fill="#888">理解·绘图</text>
  <rect x="320" y="145" width="72" height="30" rx="6" fill="#e8f0ff" stroke="#003f88" stroke-width="0.6"/>
  <text x="356" y="158" text-anchor="middle" font-size="10" fill="#003f88">数据</text>
  <text x="356" y="170" text-anchor="middle" font-size="7" fill="#888">分析·图表</text>
  <rect x="265" y="240" width="80" height="30" rx="6" fill="#e8f0ff" stroke="#003f88" stroke-width="0.6"/>
  <text x="305" y="252" text-anchor="middle" font-size="10" fill="#003f88">代码</text>
  <text x="305" y="264" text-anchor="middle" font-size="7" fill="#888">Py·JS</text>
  <rect x="55" y="240" width="80" height="30" rx="6" fill="#e8f0ff" stroke="#003f88" stroke-width="0.6"/>
  <text x="95" y="252" text-anchor="middle" font-size="10" fill="#003f88">办公</text>
  <text x="95" y="264" text-anchor="middle" font-size="7" fill="#888">飞书·表格</text>
  <rect x="8" y="145" width="72" height="30" rx="6" fill="#e8f0ff" stroke="#003f88" stroke-width="0.6"/>
  <text x="44" y="158" text-anchor="middle" font-size="10" fill="#003f88">资讯</text>
  <text x="44" y="170" text-anchor="middle" font-size="7" fill="#888">新闻·天气</text>
  <line x1="135" y1="66" x2="170" y2="138" stroke="#003f88" stroke-width="0.6" opacity="0.3"/>
  <line x1="265" y1="66" x2="230" y2="138" stroke="#003f88" stroke-width="0.6" opacity="0.3"/>
  <line x1="320" y1="158" x2="230" y2="163" stroke="#003f88" stroke-width="0.6" opacity="0.3"/>
  <line x1="265" y1="254" x2="230" y2="190" stroke="#003f88" stroke-width="0.6" opacity="0.3"/>
  <line x1="135" y1="254" x2="170" y2="190" stroke="#003f88" stroke-width="0.6" opacity="0.3"/>
  <line x1="80" y1="158" x2="170" y2="163" stroke="#003f88" stroke-width="0.6" opacity="0.3"/>
  <text x="200" y="300" text-anchor="middle" font-size="11" fill="#555">让 Agent 从"会说"变成"能干"</text>
</svg>