<svg xmlns="http://www.w3.org/2000/svg" viewBox="0 0 400 300">
  <defs>
    <linearGradient id="bg" x1="0" y1="0" x2="0" y2="1"><stop offset="0%" stop-color="#f8faff"/><stop offset="100%" stop-color="#e8eff8"/></linearGradient>
    <linearGradient id="blue" x1="0" y1="0" x2="1" y2="1"><stop offset="0%" stop-color="#003f88"/><stop offset="100%" stop-color="#0056b3"/></linearGradient>
  </defs>
  <rect width="400" height="300" rx="12" fill="url(#bg)" stroke="#d0d8e8" stroke-width="1"/>
  <text x="200" y="24" text-anchor="middle" font-size="14" font-weight="bold" fill="#003f88">人设 Prompt 四步设计法</text>
  <rect x="60" y="44" width="280" height="44" rx="8" fill="url(#blue)" opacity="0.9"/>
  <text x="200" y="62" text-anchor="middle" font-size="12" fill="#fff" font-weight="bold">选模板</text>
  <text x="200" y="78" text-anchor="middle" font-size="10" fill="#d0dfff">从预设模板快速启动</text>
  <polygon points="192,88 200,96 208,88" fill="#003f88"/>
  <rect x="60" y="100" width="280" height="40" rx="8" fill="#e3f0ff" stroke="#003f88" stroke-width="0.8"/>
  <text x="200" y="116" text-anchor="middle" font-size="12" fill="#003f88" font-weight="bold">定人设</text>
  <text x="200" y="132" text-anchor="middle" font-size="10" fill="#668">角色 · 目标 · 行为边界</text>
  <polygon points="192,140 200,148 208,140" fill="#003f88"/>
  <rect x="60" y="152" width="280" height="40" rx="8" fill="#e3f0ff" stroke="#003f88" stroke-width="0.8"/>
  <text x="200" y="168" text-anchor="middle" font-size="12" fill="#003f88" font-weight="bold">配能力</text>
  <text x="200" y="184" text-anchor="middle" font-size="10" fill="#668">知识库 · 插件 · 工作流</text>
  <polygon points="192,192 200,200 208,192" fill="#003f88"/>
  <rect x="60" y="204" width="280" height="44" rx="8" fill="url(#blue)" opacity="0.9"/>
  <text x="200" y="222" text-anchor="middle" font-size="12" fill="#fff" font-weight="bold">调优上线</text>
  <text x="200" y="240" text-anchor="middle" font-size="10" fill="#d0dfff">右侧实时调试 → 一键发布</text>
  <text x="200" y="278" text-anchor="middle" font-size="11" fill="#555">人设越具体，Agent 越精准</text>
</svg>