<svg xmlns="http://www.w3.org/2000/svg" viewBox="0 0 420 300">
  <rect x="10" y="10" width="400" height="280" rx="10" fill="#fff8e1" stroke="#ffecb3"/>
  <text x="25" y="38" fill="#333" font-size="14" font-weight="bold">STAR 需求分析框架</text>
  <rect x="25" y="55" width="175" height="95" rx="8" fill="#0288d1"/>
  <text x="40" y="80" fill="white" font-size="22">S</text>
  <text x="60" y="80" fill="white" font-size="14">ituation</text>
  <text x="40" y="100" fill="#ddd" font-size="11">情境分析</text>
  <text x="40" y="118" fill="#ddd" font-size="10">业务背景 现状痛点</text>
  <text x="40" y="135" fill="#ddd" font-size="10">核心问题 数据佐证</text>
  <rect x="215" y="55" width="175" height="95" rx="8" fill="#00695c"/>
  <text x="230" y="80" fill="white" font-size="22">T</text>
  <text x="250" y="80" fill="white" font-size="14">ask</text>
  <text x="230" y="100" fill="#ddd" font-size="11">任务定义</text>
  <text x="230" y="118" fill="#ddd" font-size="10">需求目标 衡量标准</text>
  <text x="230" y="135" fill="#ddd" font-size="10">交付范围 SMART</text>
  <rect x="25" y="165" width="175" height="95" rx="8" fill="#e65100"/>
  <text x="40" y="190" fill="white" font-size="22">A</text>
  <text x="60" y="190" fill="white" font-size="14">ction</text>
  <text x="40" y="210" fill="#ddd" font-size="11">行动方案</text>
  <text x="40" y="228" fill="#ddd" font-size="10">方案设计 功能拆解</text>
  <text x="40" y="245" fill="#ddd" font-size="10">实施路径</text>
  <rect x="215" y="165" width="175" height="95" rx="8" fill="#6a1b9a"/>
  <text x="230" y="190" fill="white" font-size="22">R</text>
  <text x="250" y="190" fill="white" font-size="14">esult</text>
  <text x="230" y="210" fill="#ddd" font-size="11">结果评估</text>
  <text x="230" y="228" fill="#ddd" font-size="10">量化指标 用户反馈</text>
  <text x="230" y="245" fill="#ddd" font-size="10">迭代方向</text>
</svg>