<svg xmlns="http://www.w3.org/2000/svg" viewBox="0 0 480 360">
  <rect x="10" y="10" width="460" height="340" rx="10" fill="#f5f5f5" stroke="#ddd"/>
  <text x="30" y="40" fill="#333" font-size="14" font-weight="bold">Coze 工作流节点编排示意图</text>
  <rect x="30" y="55" width="100" height="35" rx="17" fill="#0288d1"/>
  <text x="50" y="77" fill="white" font-size="12">用户输入</text>
  <line x1="130" y1="72" x2="165" y2="72" stroke="#0288d1" stroke-width="2"/>
  <polygon points="160,67 170,72 160,77" fill="#0288d1"/>
  <rect x="170" y="55" width="100" height="35" rx="17" fill="#00695c"/>
  <text x="190" y="77" fill="white" font-size="12">LLM 处理</text>
  <line x1="270" y1="72" x2="305" y2="72" stroke="#0288d1" stroke-width="2"/>
  <polygon points="300,67 310,72 300,77" fill="#0288d1"/>
  <rect x="170" y="110" width="100" height="35" rx="17" fill="#6a1b9a"/>
  <text x="195" y="132" fill="white" font-size="12">知识库检索</text>
  <line x1="220" y1="90" x2="220" y2="110" stroke="#999" stroke-width="1.5" stroke-dasharray="4,3"/>
  <polygon points="215,105 220,115 225,105" fill="#999"/>
  <line x1="220" y1="145" x2="220" y2="180" stroke="#0288d1" stroke-width="2"/>
  <polygon points="215,175 220,185 225,175" fill="#0288d1"/>
  <rect x="155" y="185" width="130" height="35" rx="6" fill="#ff8f00"/>
  <text x="178" y="207" fill="white" font-size="12">条件分支判断</text>
  <line x1="220" y1="220" x2="220" y2="250" stroke="#0288d1" stroke-width="2"/>
  <polygon points="215,245 220,255 225,245" fill="#0288d1"/>
  <rect x="155" y="255" width="130" height="35" rx="17" fill="#e65100"/>
  <text x="183" y="277" fill="white" font-size="12">插件工具调用</text>
  <line x1="220" y1="290" x2="220" y2="310" stroke="#0288d1" stroke-width="2"/>
  <polygon points="215,305 220,315 225,305" fill="#0288d1"/>
  <rect x="155" y="315" width="130" height="35" rx="17" fill="#1b5e20"/>
  <text x="200" y="337" fill="white" font-size="12">输出结果</text>
  <rect x="320" y="185" width="130" height="35" rx="6" fill="#e53935"/>
  <text x="355" y="207" fill="white" font-size="11">异常处理</text>
  <line x1="285" y1="202" x2="315" y2="202" stroke="#999" stroke-width="1.5" stroke-dasharray="3,2"/>
  <polygon points="310,197 320,202 310,207" fill="#999"/>
</svg>